# xmcd CD database file generated by OrangeCD 6.3
#
# Track frame offsets:
#	150
#	8995
#	21878
#	33521
#	46930
#	63294
#	92480
#	103872
#	122655
#	141593
#	153295
#	168040
#	180524
#	192302
#	208938
#	236497
#	253952
#	266562
#	279970
#	299608
#	313466
#	326922
#	340282
#
# Disc length: 4793 seconds
#
# Revision: 0
# Processed by: cddbd v1.5.2PL0 Copyright (c) Steve Scherf et al.
# Submitted via: OrangeCD 6.3
#
DISCID=5d12b717
DTITLE=Ray Charles - The Greatest Songs
DYEAR=1900
DGENRE=
TTITLE0=Hit The Road Jack
TTITLE1=Unchain My Heart
TTITLE2=Baby , Don't You Cry
TTITLE3=You Are My Sunshine
TTITLE4=Georgia of My Mind
TTITLE5=What'd I Say, Parts 1 and 2
TTITLE6=I Don't Need No Doctor
TTITLE7=Baby, It's Cold Outside
TTITLE8=I Can't Snop Loving You
TTITLE9=In The Hit On The Night 
TTITLE10=You Don't Know Me
TTITLE11=Yesterday
TTITLE12=Don't Set Me Free
TTITLE13=Look What They've Done...
TTITLE14=Makin' Whoopee
TTITLE15=Ruby
TTITLE16=Them That Got
TTITLE17=Eleanor Rigby
TTITLE18=That Lucky Old Sun
TTITLE19=Don't Change On Me
TTITLE20=Let's Go Get Stoned
TTITLE21=Crying Time
TTITLE22=A Song For You
EXTD=
EXTT0=
EXTT1=
EXTT2=
EXTT3=
EXTT4=
EXTT5=
EXTT6=
EXTT7=
EXTT8=
EXTT9=
EXTT10=
EXTT11=
EXTT12=
EXTT13=
EXTT14=
EXTT15=
EXTT16=
EXTT17=
EXTT18=
EXTT19=
EXTT20=
EXTT21=
EXTT22=
PLAYORDER=
